<svg xmlns="http://www.w3.org/2000/svg" viewBox="0 0 246.47 73.53"><defs><style>.cls-1{fill:none;}.cls-2{fill:#2574ba;}.cls-3{fill:#303131;}</style></defs><g id="Capa_2" data-name="Capa 2"><g id="Capa_1-2" data-name="Capa 1"><rect class="cls-1" width="246.47" height="73.53"/><path class="cls-2" d="M50.88,19.75a3.69,3.69,0,0,1-2.7-1,4.81,4.81,0,0,0,2.64-4.13c0-1.68-1.11-3.21-4.35-3.21s-5.41,1.49-5.41,4.36c0,7.09,13.23,8,13.23,18.39,0,8.1-8,12-16.52,12-6.71,0-12.47-2.41-12.47-8.27C25.3,32.72,29.83,30,34,30c2,0,5,.68,5.17,3.18-3.17,0-6.91,1.16-6.91,4.52,0,2.4,1.87,4.6,5.63,4.6,3.95,0,6.83-2.35,6.83-6.39,0-8.2-12.06-11.13-12.06-18.22,0-5,6-8.59,13.58-8.59,2.77,0,9.47.48,9.47,5.76a4.61,4.61,0,0,1-4.33,4.87C51.18,19.75,51,19.76,50.88,19.75Z"/><path class="cls-2" d="M69.66,21.2,65.47,37.47A5.39,5.39,0,0,0,65.22,39c0,1.34.77,1.77,2.42,1.77,2.29,0,4.41-1.82,5.29-4.22H75.4c-3.35,7.83-9.17,8.93-12.35,8.93-3.52,0-6.29-1.72-6.29-5.76a13.23,13.23,0,0,1,.47-3.12L61.28,21.2Zm-2.6-10.29c2.58,0,4.69,1.73,4.69,3.85s-2.09,3.78-4.69,3.78-4.65-1.68-4.65-3.78S64.47,10.91,67.06,10.91Z"/><path class="cls-2" d="M87.75,25.32c-2.12,0-3.71,2-4.59,4.42l-4,15.42H70.67l6.26-24H85.4l-.65,2.49A9.72,9.72,0,0,1,91.63,21c3.76,0,6.53,1.58,6.53,5.43s-2.82,9.7-2.82,12.39c0,1.2.58,2,2.35,2,2.59,0,3.64-1.73,4.94-4.22h2.46c-3.28,7.86-7.82,8.87-10.93,8.87-5.12,0-6.94-2.68-6.94-5.43,0-3.25,2.64-9.17,2.64-12.24C89.9,26.19,89.16,25.32,87.75,25.32Z"/><path class="cls-2" d="M130.85,21.2l-4.24,16.32a6.4,6.4,0,0,0-.27,1.49c0,1.34.76,2,2.41,2,2.29,0,3.88-2.12,4.76-4.52H136c-3.31,7.87-8.63,9-11.77,9s-5.42-1.53-5.76-4.41a11.12,11.12,0,0,1-8.77,4.41c-4.05,0-7.82-2-7.82-7.72C101.86,31.28,106.75,21,117,21c3.35,0,4.77,1,4.77,2.45v.34l.64-2.54ZM110.6,37.09c0,3.69,1.88,3.74,3,3.74a5.48,5.48,0,0,0,4.88-4.22l2.82-10.86c0-.58-.54-1.82-2.42-1.82-5-.05-8.27,8.59-8.27,13.11Z"/><path class="cls-2" d="M148.31,25.32c-2.29,0-4.11,2.93-4.47,4.23l-4.05,15.61h-8.46l8.52-32.66,8.71-1-3.18,12.15A9.74,9.74,0,0,1,152.26,21c3.76,0,6.52,1.58,6.52,5.43S156,36.13,156,38.82c0,1.2.59,2,2.35,2,2.59,0,3.64-1.73,4.94-4.22h2.47c-3.3,7.86-7.84,8.87-11,8.87-5.11,0-6.93-2.68-6.93-5.43,0-3.25,2.64-9.17,2.64-12.24C150.48,26.19,149.78,25.32,148.31,25.32Z"/><path class="cls-2" d="M190.23,21.2,186,37.52a5.37,5.37,0,0,0-.23,1.54c0,1.34.76,1.77,2.41,1.77,2.28,0,3.87-1.82,4.75-4.22h2.47c-3.35,7.83-8.64,8.88-11.81,8.88-3.35,0-5.46-1.58-5.82-4.55a10.21,10.21,0,0,1-8.7,4.55c-3.54,0-6.3-1.72-6.3-5.76a12.75,12.75,0,0,1,.48-3.12l4-15.41h8.47l-4.23,16.32a6.17,6.17,0,0,0-.18,1.35c0,1.1.47,2,1.77,2,2.29,0,3.82-1.82,4.7-4.22l4-15.41Z"/><path class="cls-2" d="M221.17,21.2l-4.25,16.32a6.17,6.17,0,0,0-.23,1.54c0,1.34.77,1.77,2.41,1.77a3.6,3.6,0,0,0,1.3-.19c-1.59,3.36-2.71,4.85-5.88,4.85s-5.29-1.68-5.76-4.46A11,11,0,0,1,200,45.49c-4,0-7.81-2-7.81-7.72,0-6.49,4.87-16.82,15.11-16.82,3.35,0,4.76,1,4.76,2.45v.34l.64-2.54ZM200.92,37.09c0,3.69,1.88,3.74,2.94,3.74a5.47,5.47,0,0,0,4.88-4.22l2.82-10.86c0-.58-.53-1.82-2.41-1.82-5-.05-8.27,8.59-8.27,13.11Z"/><path class="cls-3" d="M63.35,57.45v3.31a1.23,1.23,0,0,1-.07.42,1.06,1.06,0,0,1-.22.29.77.77,0,0,1-.29.17.87.87,0,0,1-.32.06,1,1,0,0,1-.34-.06,1.22,1.22,0,0,1-.29-.17.84.84,0,0,1-.2-.29,1,1,0,0,1-.07-.42V52.15a.83.83,0,0,1,.07-.38.84.84,0,0,1,.19-.31.83.83,0,0,1,.28-.21.73.73,0,0,1,.36-.07h2.72a5.84,5.84,0,0,1,1.44.16,3.47,3.47,0,0,1,1.19.54,2.71,2.71,0,0,1,.82,1,3,3,0,0,1,.3,1.44,3,3,0,0,1-.31,1.46,2.61,2.61,0,0,1-.85,1,3.42,3.42,0,0,1-1.24.54,6.46,6.46,0,0,1-1.51.16Zm1.58-1.33a3.69,3.69,0,0,0,.87-.1,1.87,1.87,0,0,0,.68-.29,1.59,1.59,0,0,0,.47-.56,1.87,1.87,0,0,0,.16-.85,1.92,1.92,0,0,0-.16-.85,1.33,1.33,0,0,0-.46-.54,1.59,1.59,0,0,0-.66-.3,3.91,3.91,0,0,0-.83-.09H63.35v3.58Z"/><path class="cls-3" d="M76.21,60.84a.79.79,0,0,1-.07.37.85.85,0,0,1-.17.25.58.58,0,0,1-.56.15.62.62,0,0,1-.27,0,.7.7,0,0,1-.43-.38,1,1,0,0,1-.08-.34v-.54a3.17,3.17,0,0,1-.36.54,2.68,2.68,0,0,1-.54.47,2.23,2.23,0,0,1-.65.29,2.3,2.3,0,0,1-.69.1,2.47,2.47,0,0,1-.9-.16,2.08,2.08,0,0,1-.76-.51,2.54,2.54,0,0,1-.52-.86A3.44,3.44,0,0,1,70,59V55.18a.85.85,0,0,1,.24-.61.64.64,0,0,1,.25-.15.86.86,0,0,1,.59,0,.58.58,0,0,1,.25.15.83.83,0,0,1,.19.26,1,1,0,0,1,.06.35V59a1.87,1.87,0,0,0,.11.7,1.41,1.41,0,0,0,.28.51,1,1,0,0,0,.43.3,1.44,1.44,0,0,0,.5.1,2,2,0,0,0,.64-.11,1.73,1.73,0,0,0,.54-.35,1.77,1.77,0,0,0,.36-.53,1.88,1.88,0,0,0,.17-.77V55.18a1.15,1.15,0,0,1,.07-.36.67.67,0,0,1,.19-.25.5.5,0,0,1,.25-.15.66.66,0,0,1,.28,0,.76.76,0,0,1,.3,0,.64.64,0,0,1,.25.15.74.74,0,0,1,.17.25.75.75,0,0,1,.07.36Z"/><path class="cls-3" d="M84.34,57.78a.48.48,0,0,1-.11.34.43.43,0,0,1-.37.15H79.29a2.53,2.53,0,0,0,.6,1.64,1.85,1.85,0,0,0,1.43.59,3.21,3.21,0,0,0,1-.17,6.09,6.09,0,0,0,1-.45.43.43,0,0,1,.22-.06.36.36,0,0,1,.29.14.54.54,0,0,1,.12.34v.17a.56.56,0,0,1-.09.17,2.14,2.14,0,0,1-.52.52,3.32,3.32,0,0,1-.68.34,3.75,3.75,0,0,1-.75.19,4.74,4.74,0,0,1-.75.06,3.33,3.33,0,0,1-1.36-.26,3.24,3.24,0,0,1-1.1-.76A4,4,0,0,1,78,59.5,4.62,4.62,0,0,1,77.73,58a4.39,4.39,0,0,1,.9-2.55,3.68,3.68,0,0,1,1-.84,3.05,3.05,0,0,1,1.42-.33,3.36,3.36,0,0,1,1.43.29,2.78,2.78,0,0,1,1,.76,3.44,3.44,0,0,1,.61,1.13A4.65,4.65,0,0,1,84.34,57.78Zm-1.4-.33a3.22,3.22,0,0,0-.15-.75,2.1,2.1,0,0,0-.35-.68,1.54,1.54,0,0,0-.57-.41,1.85,1.85,0,0,0-.77-.14,1.74,1.74,0,0,0-.71.15,1.44,1.44,0,0,0-.54.44,2.41,2.41,0,0,0-.38.68,2.94,2.94,0,0,0-.17.71Z"/><path class="cls-3" d="M87.31,60.92a.75.75,0,0,1-.1.33.48.48,0,0,1-.17.23.7.7,0,0,1-.24.13.62.62,0,0,1-.27,0,.66.66,0,0,1-.28,0,.64.64,0,0,1-.25-.15.67.67,0,0,1-.16-.25.79.79,0,0,1-.07-.37V52a.73.73,0,0,1,.07-.36.64.64,0,0,1,.18-.25.72.72,0,0,1,.24-.14.86.86,0,0,1,.59,0,.72.72,0,0,1,.24.14.67.67,0,0,1,.19.25,1,1,0,0,1,.07.36v3.62a3.12,3.12,0,0,1,.43-.53,2.65,2.65,0,0,1,.56-.44,2.9,2.9,0,0,1,.65-.28,2.59,2.59,0,0,1,.68-.09,2.55,2.55,0,0,1,1.21.3,2.5,2.5,0,0,1,.88.8,3.67,3.67,0,0,1,.54,1.19A6,6,0,0,1,92.47,58a6.33,6.33,0,0,1-.16,1.37,4.2,4.2,0,0,1-.53,1.23,2.53,2.53,0,0,1-.86.86,2.28,2.28,0,0,1-1.22.32,2.65,2.65,0,0,1-1.34-.37,3.14,3.14,0,0,1-1-1V61Zm0-3A5,5,0,0,0,87.4,59a2.51,2.51,0,0,0,.3.83,1.47,1.47,0,0,0,.58.58,1.73,1.73,0,0,0,.9.21,1.3,1.3,0,0,0,.81-.25,1.78,1.78,0,0,0,.5-.66,3,3,0,0,0,.25-.88,6.67,6.67,0,0,0,.07-.89,4.43,4.43,0,0,0-.09-.9,2.71,2.71,0,0,0-.28-.83,1.85,1.85,0,0,0-.52-.59,1.48,1.48,0,0,0-.82-.21,1.65,1.65,0,0,0-.84.19,1.67,1.67,0,0,0-.56.56,2.25,2.25,0,0,0-.3.77,4.25,4.25,0,0,0-.05,1Z"/><path class="cls-3" d="M93.94,52a.78.78,0,0,1,.06-.37.68.68,0,0,1,.18-.26.67.67,0,0,1,.25-.16.86.86,0,0,1,.59,0,.78.78,0,0,1,.24.16.58.58,0,0,1,.18.26.94.94,0,0,1,.07.37v8.78a.83.83,0,0,1-.07.38.87.87,0,0,1-.18.26.82.82,0,0,1-.25.16.71.71,0,0,1-.29,0,.76.76,0,0,1-.3,0,.64.64,0,0,1-.25-.15,1,1,0,0,1-.17-.27.82.82,0,0,1-.06-.38Z"/><path class="cls-3" d="M97,58a4.63,4.63,0,0,1,.22-1.38,3.57,3.57,0,0,1,.64-1.22,3.06,3.06,0,0,1,1.11-.84,4,4,0,0,1,3.11,0,3.27,3.27,0,0,1,1.11.84,3.57,3.57,0,0,1,.64,1.22,4.52,4.52,0,0,1,0,2.72,3.35,3.35,0,0,1-.65,1.22,3.3,3.3,0,0,1-1.11.85,4,4,0,0,1-3.11,0,3.2,3.2,0,0,1-1.11-.85,3.48,3.48,0,0,1-.64-1.22A4.67,4.67,0,0,1,97,58Zm1.66,0a4.61,4.61,0,0,0,.1.91,3,3,0,0,0,.34.86,1.64,1.64,0,0,0,.57.6,1.69,1.69,0,0,0,1.71,0,1.82,1.82,0,0,0,.57-.6,3,3,0,0,0,.34-.86,4.34,4.34,0,0,0,0-1.83,2.81,2.81,0,0,0-.34-.86,1.85,1.85,0,0,0-.57-.61,1.74,1.74,0,0,0-1.71,0,1.76,1.76,0,0,0-.57.61,2.81,2.81,0,0,0-.34.86A4.71,4.71,0,0,0,98.63,58Z"/><path class="cls-3" d="M116,52.13a1.15,1.15,0,0,1,.08-.41.86.86,0,0,1,.21-.29.79.79,0,0,1,.29-.18.77.77,0,0,1,.33-.06,1,1,0,0,1,.33.06,1.22,1.22,0,0,1,.29.17,1,1,0,0,1,.2.29,1,1,0,0,1,.08.42v8.58a1,1,0,0,1-.08.41.83.83,0,0,1-.2.3,1.22,1.22,0,0,1-.29.17,1,1,0,0,1-.34.06.87.87,0,0,1-.32-.06.8.8,0,0,1-.5-.47,1.15,1.15,0,0,1-.08-.41V57h-4.3v3.7a.84.84,0,0,1-.08.41.75.75,0,0,1-.2.3,1.11,1.11,0,0,1-.3.17.92.92,0,0,1-.33.06,1,1,0,0,1-.33-.06,1.22,1.22,0,0,1-.29-.17,1,1,0,0,1-.2-.3,1,1,0,0,1-.08-.41V52.13a1,1,0,0,1,.08-.41.84.84,0,0,1,.49-.47,1,1,0,0,1,.67,0,1.05,1.05,0,0,1,.29.17,1,1,0,0,1,.2.29.85.85,0,0,1,.08.42v3.3H116Z"/><path class="cls-3" d="M119.46,58a5,5,0,0,1,.22-1.38,3.78,3.78,0,0,1,.65-1.22,3.23,3.23,0,0,1,1.1-.84,4,4,0,0,1,3.12,0,3.11,3.11,0,0,1,1.1.84,4,4,0,0,1,.66,1.22,4.51,4.51,0,0,1,0,2.72,3.53,3.53,0,0,1-.66,1.22,3.26,3.26,0,0,1-1.1.85,4,4,0,0,1-3.12,0,3.26,3.26,0,0,1-1.1-.85,3.51,3.51,0,0,1-.65-1.22A4.64,4.64,0,0,1,119.46,58Zm1.66,0a4.71,4.71,0,0,0,.11.91,2.74,2.74,0,0,0,.33.86,1.75,1.75,0,0,0,.58.6,1.67,1.67,0,0,0,1.7,0,1.82,1.82,0,0,0,.57-.6,3,3,0,0,0,.34-.86,4.34,4.34,0,0,0,0-1.83,2.81,2.81,0,0,0-.34-.86,1.85,1.85,0,0,0-.57-.61,1.72,1.72,0,0,0-1.7,0,1.78,1.78,0,0,0-.58.61,2.56,2.56,0,0,0-.33.86A4.72,4.72,0,0,0,121.12,58Z"/><path class="cls-3" d="M129.23,56.25a.63.63,0,0,0,.12.37,1,1,0,0,0,.34.26,2.06,2.06,0,0,0,.48.21l.62.15.69.19.71.24a2.16,2.16,0,0,1,1,.64,1.62,1.62,0,0,1,.36,1.1,2.11,2.11,0,0,1-.23,1,2.16,2.16,0,0,1-.65.76,3,3,0,0,1-1,.44,3.88,3.88,0,0,1-1.17.15,5.64,5.64,0,0,1-1.08-.1,4.17,4.17,0,0,1-.89-.28A2.06,2.06,0,0,1,128,61a.71.71,0,0,1-.23-.49.48.48,0,0,1,.16-.35.55.55,0,0,1,.37-.14.88.88,0,0,1,.36.1l.54.23a4,4,0,0,0,.69.22,3.15,3.15,0,0,0,.81.1,2.39,2.39,0,0,0,.53-.06,1.51,1.51,0,0,0,.45-.2A1,1,0,0,0,132,60a.89.89,0,0,0,.13-.48.72.72,0,0,0-.22-.5,1.28,1.28,0,0,0-.59-.35c-.3-.1-.59-.18-.88-.25s-.57-.14-.83-.21a5.59,5.59,0,0,1-.72-.26,1.85,1.85,0,0,1-.58-.37,1.53,1.53,0,0,1-.37-.54,2.07,2.07,0,0,1-.15-.77,1.87,1.87,0,0,1,.82-1.5,2.52,2.52,0,0,1,.89-.39,4.78,4.78,0,0,1,1.13-.13,6.72,6.72,0,0,1,1.1.1,3.6,3.6,0,0,1,.78.27A1.72,1.72,0,0,1,133,55a.8.8,0,0,1,.15.43.37.37,0,0,1-.15.31.56.56,0,0,1-.37.11h-.15l-.15-.06a2.22,2.22,0,0,0-.66-.26,3.81,3.81,0,0,0-1-.1,2.91,2.91,0,0,0-.59,0,1.21,1.21,0,0,0-.45.16.74.74,0,0,0-.29.29A1,1,0,0,0,129.23,56.25Z"/><path class="cls-3" d="M136.51,55.68a4.15,4.15,0,0,1,.43-.58,2.8,2.8,0,0,1,.57-.46,2.51,2.51,0,0,1,.65-.28,2.82,2.82,0,0,1,.71-.09,2.36,2.36,0,0,1,1.21.32,2.62,2.62,0,0,1,.87.85,4.24,4.24,0,0,1,.52,1.22,6,6,0,0,1,.17,1.4,5.14,5.14,0,0,1-.19,1.4,3.92,3.92,0,0,1-.54,1.2,2.5,2.5,0,0,1-.88.8,2.36,2.36,0,0,1-1.19.29,2.59,2.59,0,0,1-.68-.09,2.42,2.42,0,0,1-.64-.27,2.8,2.8,0,0,1-.57-.46,4.51,4.51,0,0,1-.44-.54v3.26a.84.84,0,0,1-.07.35.74.74,0,0,1-.17.25,1.35,1.35,0,0,1-.26.15h-.29a.66.66,0,0,1-.28,0,.68.68,0,0,1-.26-.15A.76.76,0,0,1,135,64a1,1,0,0,1-.06-.35V55.17a.8.8,0,0,1,.23-.6.61.61,0,0,1,.26-.15.66.66,0,0,1,.28,0,.61.61,0,0,1,.27,0,.89.89,0,0,1,.25.14.71.71,0,0,1,.19.23.9.9,0,0,1,.09.32Zm0,2.36a5,5,0,0,0,.09,1,3.24,3.24,0,0,0,.31.8,1.67,1.67,0,0,0,.57.58,1.57,1.57,0,0,0,.84.21,1.4,1.4,0,0,0,.82-.23,1.7,1.7,0,0,0,.52-.61,2.87,2.87,0,0,0,.27-.86,5.44,5.44,0,0,0,0-1.74,2.86,2.86,0,0,0-.26-.86,1.87,1.87,0,0,0-.52-.63,1.27,1.27,0,0,0-.82-.23,1.73,1.73,0,0,0-.89.19,1.29,1.29,0,0,0-.56.55,2.39,2.39,0,0,0-.29.8,5.55,5.55,0,0,0-.07,1.08Z"/><path class="cls-3" d="M144.85,51.94a.79.79,0,0,1-.26.59,1,1,0,0,1-.68.23,1.22,1.22,0,0,1-.38-.07.83.83,0,0,1-.48-.42.64.64,0,0,1-.07-.33.72.72,0,0,1,.07-.33.92.92,0,0,1,.19-.25.75.75,0,0,1,.3-.17.82.82,0,0,1,.38-.06.93.93,0,0,1,.37.06.85.85,0,0,1,.49.42A.88.88,0,0,1,144.85,51.94Zm-1.73,3.26a.92.92,0,0,1,.07-.36.68.68,0,0,1,.18-.26.63.63,0,0,1,.26-.16.71.71,0,0,1,.29,0,.66.66,0,0,1,.28,0,.71.71,0,0,1,.26.16.68.68,0,0,1,.18.26,1.15,1.15,0,0,1,.07.36v5.61a1.22,1.22,0,0,1-.07.38,1.51,1.51,0,0,1-.18.26.92.92,0,0,1-.27.16.66.66,0,0,1-.28,0,.71.71,0,0,1-.29,0,.61.61,0,0,1-.26-.15,1,1,0,0,1-.17-.27,1,1,0,0,1-.07-.38Z"/><path class="cls-3" d="M147.15,54.42l.13-2a1,1,0,0,1,.08-.29.91.91,0,0,1,.18-.21.72.72,0,0,1,.24-.14,1,1,0,0,1,.25,0,.63.63,0,0,1,.43.17.61.61,0,0,1,.19.49v2h1a.44.44,0,0,1,.41.18.65.65,0,0,1,.14.4.56.56,0,0,1-.14.41.49.49,0,0,1-.41.18h-1v3.91a1.84,1.84,0,0,0,.09.57.54.54,0,0,0,.22.33.86.86,0,0,0,.41.1H150a.49.49,0,0,1,.4.18.68.68,0,0,1,.14.41.65.65,0,0,1-.13.38,1,1,0,0,1-.35.23,2.52,2.52,0,0,1-.47.13,4.69,4.69,0,0,1-.53,0,2.64,2.64,0,0,1-.84-.14,1.31,1.31,0,0,1-.61-.43,2.19,2.19,0,0,1-.38-.8,5,5,0,0,1-.13-1.22V55.54h-.65a.55.55,0,0,1-.43-.18.74.74,0,0,1-.13-.41.63.63,0,0,1,.14-.4.52.52,0,0,1,.43-.19Z"/><path class="cls-3" d="M155.7,56.8a1.57,1.57,0,0,0-.1-.61.93.93,0,0,0-.26-.41,1.15,1.15,0,0,0-.43-.21,1.6,1.6,0,0,0-.54-.07h-.61l-.52.11-.44.17-.41.19h-.2a.28.28,0,0,1-.18,0,.33.33,0,0,1-.15-.11.44.44,0,0,1-.1-.16.54.54,0,0,1,0-.18v-.14a.21.21,0,0,1,.07-.15,1.79,1.79,0,0,1,1-.75,4.81,4.81,0,0,1,1.64-.25,4,4,0,0,1,1.09.15A2.09,2.09,0,0,1,157,55.67a3.4,3.4,0,0,1,.2,1.22v4a.93.93,0,0,1-.07.33.63.63,0,0,1-.16.23.62.62,0,0,1-.25.14.57.57,0,0,1-.26,0,.53.53,0,0,1-.25,0,.66.66,0,0,1-.38-.35.82.82,0,0,1-.07-.31v-.54a2.73,2.73,0,0,1-.37.52,2.08,2.08,0,0,1-.53.45,2.67,2.67,0,0,1-2.22.21,2,2,0,0,1-.72-.41,2,2,0,0,1-.52-.65,2.21,2.21,0,0,1-.17-.84,2.42,2.42,0,0,1,.26-1.15,2.21,2.21,0,0,1,.76-.76,3.62,3.62,0,0,1,1.19-.43,9.24,9.24,0,0,1,1.57-.13h.68Zm0,1.36h-1.46a2.51,2.51,0,0,0-.76.2,1.33,1.33,0,0,0-.54.43,1.11,1.11,0,0,0-.22.71,1.19,1.19,0,0,0,.11.45.93.93,0,0,0,.26.39,1.25,1.25,0,0,0,.41.22,2.19,2.19,0,0,0,.5.09,1.71,1.71,0,0,0,.67-.14,1.31,1.31,0,0,0,.53-.4,1.76,1.76,0,0,0,.36-.58,2.22,2.22,0,0,0,.14-.84Z"/><path class="cls-3" d="M159,52a.94.94,0,0,1,.07-.37.78.78,0,0,1,.17-.26.82.82,0,0,1,1.1,0,.78.78,0,0,1,.17.26.94.94,0,0,1,.07.37v8.78a.83.83,0,0,1-.07.38,1.51,1.51,0,0,1-.18.26.87.87,0,0,1-.26.16.83.83,0,0,1-.58,0,.58.58,0,0,1-.25-.15,1,1,0,0,1-.17-.27,1,1,0,0,1-.07-.38Z"/><path class="cls-3" d="M166.4,56.8a1.57,1.57,0,0,0-.1-.61,1,1,0,0,0-.69-.62,1.7,1.7,0,0,0-.55-.07h-.6l-.52.11-.45.17-.41.19h-.2a.25.25,0,0,1-.17,0,.42.42,0,0,1-.16-.11.86.86,0,0,1-.1-.16.54.54,0,0,1,0-.18.33.33,0,0,1,0-.14.21.21,0,0,1,.07-.15,1.76,1.76,0,0,1,1-.75,4.77,4.77,0,0,1,1.64-.25,4,4,0,0,1,1.08.15,2.06,2.06,0,0,1,.86.46,2.31,2.31,0,0,1,.58.83,3.4,3.4,0,0,1,.2,1.22v4a1.3,1.3,0,0,1-.07.33.68.68,0,0,1-.23.3.43.43,0,0,1-.23.14.57.57,0,0,1-.26,0,.53.53,0,0,1-.25,0,.65.65,0,0,1-.23-.13.89.89,0,0,1-.16-.22.81.81,0,0,1-.06-.31v-.54A3.77,3.77,0,0,1,166,61a2.31,2.31,0,0,1-.54.45,2.5,2.5,0,0,1-.63.27,2.59,2.59,0,0,1-.68.09,2.56,2.56,0,0,1-.91-.15,2.24,2.24,0,0,1-.72-.41,2.2,2.2,0,0,1-.48-.69,1.89,1.89,0,0,1-.17-.84,2.42,2.42,0,0,1,.26-1.15,2.13,2.13,0,0,1,.76-.76,3.86,3.86,0,0,1,1.19-.43,9.24,9.24,0,0,1,1.57-.13h.68Zm0,1.36h-1.46a2.51,2.51,0,0,0-.76.2,1.29,1.29,0,0,0-.55.43,1.11,1.11,0,0,0-.22.71,1.19,1.19,0,0,0,.11.45,1.05,1.05,0,0,0,.27.39,1.2,1.2,0,0,0,.4.22,2.28,2.28,0,0,0,.51.09,1.66,1.66,0,0,0,.66-.14,1.31,1.31,0,0,0,.53-.4,2,2,0,0,0,.37-.58,2.69,2.69,0,0,0,.14-.84Z"/><path class="cls-3" d="M169.7,55.16a.84.84,0,0,1,.07-.35.72.72,0,0,1,.18-.24.61.61,0,0,1,.26-.15.71.71,0,0,1,.29,0,.62.62,0,0,1,.27,0,.89.89,0,0,1,.25.14.84.84,0,0,1,.18.23,1,1,0,0,1,.07.33v.59a2.07,2.07,0,0,1,.59-1,1.66,1.66,0,0,1,1.17-.41.77.77,0,0,1,.3.06.72.72,0,0,1,.22.17.57.57,0,0,1,.13.21,1.13,1.13,0,0,1,0,.26,1.13,1.13,0,0,1,0,.26,1,1,0,0,1-.13.22.78.78,0,0,1-.24.16.81.81,0,0,1-.31.06,2.16,2.16,0,0,0-.71.12,1.47,1.47,0,0,0-.55.38,2.36,2.36,0,0,0-.35.57,2.41,2.41,0,0,0-.12.84v3.27a.86.86,0,0,1-.07.36,1.14,1.14,0,0,1-.18.25.68.68,0,0,1-.26.15.71.71,0,0,1-.29,0,.66.66,0,0,1-.28,0,.68.68,0,0,1-.26-.15.53.53,0,0,1-.17-.25.73.73,0,0,1-.07-.36Z"/><path class="cls-3" d="M176.55,51.94a.75.75,0,0,1-.26.59,1.09,1.09,0,0,1-.67.23.94.94,0,0,1-.37-.07.75.75,0,0,1-.3-.17.79.79,0,0,1-.19-.25.75.75,0,0,1-.07-.33.72.72,0,0,1,.07-.33.79.79,0,0,1,.19-.25.75.75,0,0,1,.3-.17.82.82,0,0,1,.38-.06,1,1,0,0,1,.38.06.81.81,0,0,1,.28.17.67.67,0,0,1,.19.25A.72.72,0,0,1,176.55,51.94Zm-1.72,3.26a1.15,1.15,0,0,1,.07-.36.68.68,0,0,1,.18-.26.55.55,0,0,1,.55-.16.66.66,0,0,1,.28,0,.63.63,0,0,1,.26.16,1,1,0,0,1,.18.26,1.13,1.13,0,0,1,.06.36v5.61a1.21,1.21,0,0,1-.06.38.83.83,0,0,1-.19.26.63.63,0,0,1-.26.16.71.71,0,0,1-.29,0,.66.66,0,0,1-.28,0,.68.68,0,0,1-.26-.15,1,1,0,0,1-.17-.27,1.22,1.22,0,0,1-.07-.38Z"/><path class="cls-3" d="M177.88,58a4.62,4.62,0,0,1,.21-1.38,3.78,3.78,0,0,1,.65-1.22,3.11,3.11,0,0,1,1.1-.84,3.94,3.94,0,0,1,3.11,0,3.11,3.11,0,0,1,1.1.84,3.53,3.53,0,0,1,.66,1.22,4.62,4.62,0,0,1,.21,1.38,4.32,4.32,0,0,1-.21,1.34,3.37,3.37,0,0,1-.66,1.22,3.16,3.16,0,0,1-1.1.85,4.06,4.06,0,0,1-3.11,0,3.26,3.26,0,0,1-1.1-.85,3.35,3.35,0,0,1-.65-1.22A4.32,4.32,0,0,1,177.88,58Zm1.66,0a4,4,0,0,0,.1.91,3,3,0,0,0,.32.86,1.7,1.7,0,0,0,.59.6,1.49,1.49,0,0,0,.85.23,1.57,1.57,0,0,0,.85-.23,1.75,1.75,0,0,0,.58-.6,3,3,0,0,0,.32-.86,3.78,3.78,0,0,0,0-1.83,2.78,2.78,0,0,0-.32-.86,1.88,1.88,0,0,0-.58-.61,1.59,1.59,0,0,0-.85-.22,1.5,1.5,0,0,0-.85.22,1.81,1.81,0,0,0-.59.61,3,3,0,0,0-.32.86A4.05,4.05,0,0,0,179.54,58Z"/></g></g></svg>