<svg xmlns="http://www.w3.org/2000/svg" viewBox="0 0 246.47 73.53"><defs><style>.cls-1{fill:none;}.cls-2{fill:#2574ba;}</style></defs><g id="Capa_2" data-name="Capa 2"><g id="Capa_1-2" data-name="Capa 1"><rect class="cls-1" width="246.47" height="73.53"/><path class="cls-2" d="M50.88,28.87a3.69,3.69,0,0,1-2.7-1,4.81,4.81,0,0,0,2.64-4.13c0-1.68-1.11-3.21-4.35-3.21S41.06,22,41.06,24.88c0,7.09,13.23,8,13.23,18.39,0,8.1-8,12-16.52,12-6.71,0-12.47-2.41-12.47-8.27,0-5.18,4.53-7.88,8.65-7.88,2,0,5,.68,5.17,3.18-3.17,0-6.91,1.16-6.91,4.52,0,2.4,1.87,4.6,5.63,4.6,3.95,0,6.83-2.35,6.83-6.38,0-8.21-12.06-11.14-12.06-18.22,0-5,6-8.6,13.58-8.6,2.77,0,9.47.48,9.47,5.76a4.61,4.61,0,0,1-4.33,4.87Z"/><path class="cls-2" d="M69.66,30.32,65.47,46.59a5.39,5.39,0,0,0-.25,1.54c0,1.34.77,1.77,2.42,1.77,2.29,0,4.41-1.82,5.29-4.22H75.4c-3.35,7.83-9.17,8.93-12.35,8.93-3.52,0-6.29-1.72-6.29-5.76a13.23,13.23,0,0,1,.47-3.12l4.05-15.41ZM67.06,20c2.58,0,4.69,1.74,4.69,3.85s-2.09,3.79-4.69,3.79S62.41,26,62.41,23.88,64.47,20,67.06,20Z"/><path class="cls-2" d="M87.75,34.44c-2.12,0-3.71,2-4.59,4.42l-4,15.42H70.67l6.26-24H85.4l-.65,2.49a9.67,9.67,0,0,1,6.88-2.68c3.76,0,6.53,1.57,6.53,5.42s-2.82,9.7-2.82,12.39c0,1.21.58,2,2.35,2,2.59,0,3.64-1.74,4.94-4.23h2.46c-3.28,7.86-7.82,8.87-10.93,8.87-5.12,0-6.94-2.68-6.94-5.42,0-3.26,2.64-9.17,2.64-12.25C89.9,35.31,89.16,34.44,87.75,34.44Z"/><path class="cls-2" d="M130.85,30.32l-4.24,16.33a6.22,6.22,0,0,0-.27,1.48c0,1.34.76,2,2.41,2,2.29,0,3.88-2.12,4.76-4.52H136c-3.31,7.87-8.63,9-11.77,9s-5.42-1.53-5.76-4.41a11.12,11.12,0,0,1-8.77,4.41c-4.05,0-7.82-2-7.82-7.72,0-6.49,4.89-16.81,15.11-16.81,3.35,0,4.77,1,4.77,2.44v.34l.64-2.54ZM110.6,46.21c0,3.69,1.88,3.75,3,3.75a5.5,5.5,0,0,0,4.88-4.23l2.82-10.86c0-.57-.54-1.82-2.42-1.82-5,0-8.27,8.59-8.27,13.11Z"/><path class="cls-2" d="M148.31,34.44c-2.29,0-4.11,2.93-4.47,4.23l-4.05,15.61h-8.46l8.52-32.66,8.71-1-3.18,12.15a9.68,9.68,0,0,1,6.88-2.68c3.76,0,6.52,1.57,6.52,5.42S156,45.25,156,47.94c0,1.21.59,2,2.35,2,2.59,0,3.64-1.74,4.94-4.23h2.47c-3.3,7.86-7.84,8.87-11,8.87-5.11,0-6.93-2.68-6.93-5.42,0-3.26,2.64-9.17,2.64-12.25C150.48,35.31,149.78,34.44,148.31,34.44Z"/><path class="cls-2" d="M190.23,30.32,186,46.65a5.25,5.25,0,0,0-.23,1.53c0,1.34.76,1.78,2.41,1.78,2.28,0,3.87-1.83,4.75-4.23h2.47c-3.35,7.83-8.64,8.88-11.81,8.88-3.35,0-5.46-1.58-5.82-4.55a10.21,10.21,0,0,1-8.7,4.55c-3.54,0-6.3-1.72-6.3-5.76a12.75,12.75,0,0,1,.48-3.12l4-15.41h8.47l-4.23,16.33A6.09,6.09,0,0,0,171.3,48c0,1.1.47,2,1.77,2,2.29,0,3.82-1.83,4.7-4.23l4-15.41Z"/><path class="cls-2" d="M221.17,30.32l-4.25,16.33a6,6,0,0,0-.23,1.53c0,1.34.77,1.78,2.41,1.78a3.61,3.61,0,0,0,1.3-.2c-1.59,3.36-2.71,4.85-5.88,4.85s-5.29-1.68-5.76-4.46A11,11,0,0,1,200,54.61c-4,0-7.81-2-7.81-7.72,0-6.49,4.87-16.81,15.11-16.81,3.35,0,4.76,1,4.76,2.44v.34l.64-2.54ZM200.92,46.21c0,3.69,1.88,3.75,2.94,3.75a5.49,5.49,0,0,0,4.88-4.23l2.82-10.86c0-.57-.53-1.82-2.41-1.82-5,0-8.27,8.59-8.27,13.11Z"/></g></g></svg>